<mxfile host="app.diagrams.net" agent="Mozilla/5.0 (Windows NT 10.0; Win64; x64; rv:129.0) Gecko/20100101 Firefox/129.0" version="24.7.6">
  <diagram name="Page-1" id="2YBvvXClWsGukQMizWep">
    <mxGraphModel dx="1562" dy="826" grid="1" gridSize="10" guides="1" tooltips="1" connect="1" arrows="1" fold="1" page="1" pageScale="1" pageWidth="850" pageHeight="1100" math="0" shadow="0">
      <root>
        <mxCell id="0" />
        <mxCell id="1" parent="0" />
        <mxCell id="aM9ryv3xv72pqoxQDRHE-1" value="Partner" style="shape=umlLifeline;perimeter=lifelinePerimeter;whiteSpace=wrap;html=1;container=0;dropTarget=0;collapsible=0;recursiveResize=0;outlineConnect=0;portConstraint=eastwest;newEdgeStyle={&quot;edgeStyle&quot;:&quot;elbowEdgeStyle&quot;,&quot;elbow&quot;:&quot;vertical&quot;,&quot;curved&quot;:0,&quot;rounded&quot;:0};fillColor=#f5f5f5;fontColor=#333333;strokeColor=#666666;" parent="1" vertex="1">
          <mxGeometry x="230" y="60" width="100" height="730" as="geometry" />
        </mxCell>
        <mxCell id="aM9ryv3xv72pqoxQDRHE-2" value="" style="html=1;points=[];perimeter=orthogonalPerimeter;outlineConnect=0;targetShapes=umlLifeline;portConstraint=eastwest;newEdgeStyle={&quot;edgeStyle&quot;:&quot;elbowEdgeStyle&quot;,&quot;elbow&quot;:&quot;vertical&quot;,&quot;curved&quot;:0,&quot;rounded&quot;:0};" parent="aM9ryv3xv72pqoxQDRHE-1" vertex="1">
          <mxGeometry x="45" y="80" width="10" height="40" as="geometry" />
        </mxCell>
        <mxCell id="aZnRzv1SFX0IplNiYT6L-41" value="" style="html=1;points=[];perimeter=orthogonalPerimeter;outlineConnect=0;targetShapes=umlLifeline;portConstraint=eastwest;newEdgeStyle={&quot;edgeStyle&quot;:&quot;elbowEdgeStyle&quot;,&quot;elbow&quot;:&quot;vertical&quot;,&quot;curved&quot;:0,&quot;rounded&quot;:0};" parent="aM9ryv3xv72pqoxQDRHE-1" vertex="1">
          <mxGeometry x="45" y="220" width="10" height="40" as="geometry" />
        </mxCell>
        <mxCell id="aZnRzv1SFX0IplNiYT6L-55" value="" style="html=1;points=[];perimeter=orthogonalPerimeter;outlineConnect=0;targetShapes=umlLifeline;portConstraint=eastwest;newEdgeStyle={&quot;edgeStyle&quot;:&quot;elbowEdgeStyle&quot;,&quot;elbow&quot;:&quot;vertical&quot;,&quot;curved&quot;:0,&quot;rounded&quot;:0};" parent="aM9ryv3xv72pqoxQDRHE-1" vertex="1">
          <mxGeometry x="45" y="440" width="10" height="30" as="geometry" />
        </mxCell>
        <mxCell id="aM9ryv3xv72pqoxQDRHE-5" value="coin.bachkhoapay.com" style="shape=umlLifeline;perimeter=lifelinePerimeter;whiteSpace=wrap;html=1;container=0;dropTarget=0;collapsible=0;recursiveResize=0;outlineConnect=0;portConstraint=eastwest;newEdgeStyle={&quot;edgeStyle&quot;:&quot;elbowEdgeStyle&quot;,&quot;elbow&quot;:&quot;vertical&quot;,&quot;curved&quot;:0,&quot;rounded&quot;:0};fillColor=#dae8fc;strokeColor=#6c8ebf;" parent="1" vertex="1">
          <mxGeometry x="380" y="60" width="130" height="730" as="geometry" />
        </mxCell>
        <mxCell id="aM9ryv3xv72pqoxQDRHE-6" value="" style="html=1;points=[];perimeter=orthogonalPerimeter;outlineConnect=0;targetShapes=umlLifeline;portConstraint=eastwest;newEdgeStyle={&quot;edgeStyle&quot;:&quot;elbowEdgeStyle&quot;,&quot;elbow&quot;:&quot;vertical&quot;,&quot;curved&quot;:0,&quot;rounded&quot;:0};" parent="aM9ryv3xv72pqoxQDRHE-5" vertex="1">
          <mxGeometry x="60" y="80" width="10" height="40" as="geometry" />
        </mxCell>
        <mxCell id="aZnRzv1SFX0IplNiYT6L-29" value="" style="html=1;points=[];perimeter=orthogonalPerimeter;outlineConnect=0;targetShapes=umlLifeline;portConstraint=eastwest;newEdgeStyle={&quot;edgeStyle&quot;:&quot;elbowEdgeStyle&quot;,&quot;elbow&quot;:&quot;vertical&quot;,&quot;curved&quot;:0,&quot;rounded&quot;:0};" parent="aM9ryv3xv72pqoxQDRHE-5" vertex="1">
          <mxGeometry x="60" y="190" width="10" height="40" as="geometry" />
        </mxCell>
        <mxCell id="aZnRzv1SFX0IplNiYT6L-56" value="" style="html=1;points=[];perimeter=orthogonalPerimeter;outlineConnect=0;targetShapes=umlLifeline;portConstraint=eastwest;newEdgeStyle={&quot;edgeStyle&quot;:&quot;elbowEdgeStyle&quot;,&quot;elbow&quot;:&quot;vertical&quot;,&quot;curved&quot;:0,&quot;rounded&quot;:0};" parent="aM9ryv3xv72pqoxQDRHE-5" vertex="1">
          <mxGeometry x="60" y="450" width="10" height="30" as="geometry" />
        </mxCell>
        <mxCell id="aM9ryv3xv72pqoxQDRHE-7" value="Create ReCharge" style="html=1;verticalAlign=bottom;endArrow=block;edgeStyle=elbowEdgeStyle;elbow=vertical;curved=0;rounded=0;" parent="1" source="aM9ryv3xv72pqoxQDRHE-2" target="aM9ryv3xv72pqoxQDRHE-6" edge="1">
          <mxGeometry relative="1" as="geometry">
            <mxPoint x="385" y="160" as="sourcePoint" />
            <Array as="points">
              <mxPoint x="370" y="150" />
            </Array>
          </mxGeometry>
        </mxCell>
        <mxCell id="6JJZ0WglIaExuxRRYJLk-1" value="User" style="shape=umlActor;verticalLabelPosition=bottom;verticalAlign=top;html=1;outlineConnect=0;" parent="1" vertex="1">
          <mxGeometry x="60" y="60" width="20" height="30" as="geometry" />
        </mxCell>
        <mxCell id="aZnRzv1SFX0IplNiYT6L-1" value="Ngân Hàng, Ví Điện Tử " style="shape=umlLifeline;perimeter=lifelinePerimeter;whiteSpace=wrap;html=1;container=0;dropTarget=0;collapsible=0;recursiveResize=0;outlineConnect=0;portConstraint=eastwest;newEdgeStyle={&quot;edgeStyle&quot;:&quot;elbowEdgeStyle&quot;,&quot;elbow&quot;:&quot;vertical&quot;,&quot;curved&quot;:0,&quot;rounded&quot;:0};fillColor=#fff2cc;strokeColor=#d6b656;" parent="1" vertex="1">
          <mxGeometry x="570" y="60" width="100" height="740" as="geometry" />
        </mxCell>
        <mxCell id="aZnRzv1SFX0IplNiYT6L-2" style="edgeStyle=elbowEdgeStyle;rounded=0;orthogonalLoop=1;jettySize=auto;html=1;elbow=vertical;curved=0;" parent="aZnRzv1SFX0IplNiYT6L-1" target="aZnRzv1SFX0IplNiYT6L-1" edge="1">
          <mxGeometry relative="1" as="geometry">
            <mxPoint x="50" y="105" as="sourcePoint" />
          </mxGeometry>
        </mxCell>
        <mxCell id="aZnRzv1SFX0IplNiYT6L-3" style="edgeStyle=elbowEdgeStyle;rounded=0;orthogonalLoop=1;jettySize=auto;html=1;elbow=vertical;curved=0;" parent="aZnRzv1SFX0IplNiYT6L-1" target="aZnRzv1SFX0IplNiYT6L-1" edge="1">
          <mxGeometry relative="1" as="geometry">
            <mxPoint x="50" y="95" as="sourcePoint" />
          </mxGeometry>
        </mxCell>
        <mxCell id="aZnRzv1SFX0IplNiYT6L-28" value="" style="html=1;points=[];perimeter=orthogonalPerimeter;outlineConnect=0;targetShapes=umlLifeline;portConstraint=eastwest;newEdgeStyle={&quot;edgeStyle&quot;:&quot;elbowEdgeStyle&quot;,&quot;elbow&quot;:&quot;vertical&quot;,&quot;curved&quot;:0,&quot;rounded&quot;:0};" parent="aZnRzv1SFX0IplNiYT6L-1" vertex="1">
          <mxGeometry x="45" y="190" width="10" height="30" as="geometry" />
        </mxCell>
        <mxCell id="aZnRzv1SFX0IplNiYT6L-70" value="" style="html=1;points=[];perimeter=orthogonalPerimeter;outlineConnect=0;targetShapes=umlLifeline;portConstraint=eastwest;newEdgeStyle={&quot;edgeStyle&quot;:&quot;elbowEdgeStyle&quot;,&quot;elbow&quot;:&quot;vertical&quot;,&quot;curved&quot;:0,&quot;rounded&quot;:0};" parent="aZnRzv1SFX0IplNiYT6L-1" vertex="1">
          <mxGeometry x="45" y="480" width="10" height="30" as="geometry" />
        </mxCell>
        <mxCell id="aZnRzv1SFX0IplNiYT6L-9" value="User" style="shape=umlLifeline;perimeter=lifelinePerimeter;whiteSpace=wrap;html=1;container=0;dropTarget=0;collapsible=0;recursiveResize=0;outlineConnect=0;portConstraint=eastwest;newEdgeStyle={&quot;edgeStyle&quot;:&quot;elbowEdgeStyle&quot;,&quot;elbow&quot;:&quot;vertical&quot;,&quot;curved&quot;:0,&quot;rounded&quot;:0};" parent="1" vertex="1">
          <mxGeometry x="90" y="60" width="100" height="730" as="geometry" />
        </mxCell>
        <mxCell id="aM9ryv3xv72pqoxQDRHE-3" value="Charge In Request " style="html=1;verticalAlign=bottom;startArrow=oval;endArrow=block;startSize=8;edgeStyle=elbowEdgeStyle;elbow=vertical;curved=0;rounded=0;" parent="1" edge="1">
          <mxGeometry relative="1" as="geometry">
            <mxPoint x="139.5" y="150" as="sourcePoint" />
            <mxPoint x="275" y="150" as="targetPoint" />
          </mxGeometry>
        </mxCell>
        <mxCell id="aZnRzv1SFX0IplNiYT6L-19" value="" style="edgeStyle=elbowEdgeStyle;rounded=0;orthogonalLoop=1;jettySize=auto;html=1;elbow=vertical;curved=0;dashed=1;" parent="1" edge="1">
          <mxGeometry relative="1" as="geometry">
            <mxPoint x="275" y="174.5" as="sourcePoint" />
            <mxPoint x="139.5" y="174.5" as="targetPoint" />
          </mxGeometry>
        </mxCell>
        <mxCell id="aZnRzv1SFX0IplNiYT6L-20" value="&lt;div&gt;Display Bank Account Receive&lt;/div&gt;&lt;div&gt;&amp;nbsp;in QR Code&lt;/div&gt;" style="edgeLabel;html=1;align=center;verticalAlign=middle;resizable=0;points=[];" parent="aZnRzv1SFX0IplNiYT6L-19" vertex="1" connectable="0">
          <mxGeometry x="-0.2308" y="4" relative="1" as="geometry">
            <mxPoint x="-73" y="21" as="offset" />
          </mxGeometry>
        </mxCell>
        <mxCell id="aZnRzv1SFX0IplNiYT6L-26" value="Tranfer&amp;nbsp; VND To Recevie Bank Account Number" style="html=1;verticalAlign=bottom;startArrow=oval;endArrow=block;startSize=8;edgeStyle=elbowEdgeStyle;elbow=vertical;curved=0;rounded=0;" parent="1" edge="1">
          <mxGeometry x="-0.0824" y="10" relative="1" as="geometry">
            <mxPoint x="135.5" y="220" as="sourcePoint" />
            <mxPoint x="615" y="220" as="targetPoint" />
            <mxPoint as="offset" />
          </mxGeometry>
        </mxCell>
        <mxCell id="aZnRzv1SFX0IplNiYT6L-30" style="edgeStyle=elbowEdgeStyle;rounded=0;orthogonalLoop=1;jettySize=auto;html=1;elbow=horizontal;curved=0;" parent="1" source="aZnRzv1SFX0IplNiYT6L-29" target="aZnRzv1SFX0IplNiYT6L-1" edge="1">
          <mxGeometry relative="1" as="geometry">
            <Array as="points">
              <mxPoint x="520" y="250" />
            </Array>
          </mxGeometry>
        </mxCell>
        <mxCell id="aZnRzv1SFX0IplNiYT6L-61" value="get Transactions " style="edgeLabel;html=1;align=center;verticalAlign=middle;resizable=0;points=[];" parent="aZnRzv1SFX0IplNiYT6L-30" vertex="1" connectable="0">
          <mxGeometry x="0.0973" y="-1" relative="1" as="geometry">
            <mxPoint x="-3" y="9" as="offset" />
          </mxGeometry>
        </mxCell>
        <mxCell id="aZnRzv1SFX0IplNiYT6L-31" style="edgeStyle=elbowEdgeStyle;rounded=0;orthogonalLoop=1;jettySize=auto;html=1;elbow=vertical;curved=0;dashed=1;" parent="1" target="aZnRzv1SFX0IplNiYT6L-29" edge="1">
          <mxGeometry relative="1" as="geometry">
            <mxPoint x="615" y="280" as="sourcePoint" />
            <Array as="points">
              <mxPoint x="540" y="280" />
            </Array>
          </mxGeometry>
        </mxCell>
        <mxCell id="aZnRzv1SFX0IplNiYT6L-32" value="sync Transaction" style="edgeLabel;html=1;align=center;verticalAlign=middle;resizable=0;points=[];" parent="aZnRzv1SFX0IplNiYT6L-31" vertex="1" connectable="0">
          <mxGeometry x="0.297" y="2" relative="1" as="geometry">
            <mxPoint x="22" y="13" as="offset" />
          </mxGeometry>
        </mxCell>
        <mxCell id="aZnRzv1SFX0IplNiYT6L-39" value="" style="edgeStyle=elbowEdgeStyle;rounded=0;orthogonalLoop=1;jettySize=auto;html=1;elbow=vertical;curved=0;" parent="1" edge="1">
          <mxGeometry relative="1" as="geometry">
            <mxPoint x="440" y="294.5" as="sourcePoint" />
            <mxPoint x="285" y="280" as="targetPoint" />
            <Array as="points">
              <mxPoint x="360" y="280" />
            </Array>
          </mxGeometry>
        </mxCell>
        <mxCell id="aZnRzv1SFX0IplNiYT6L-40" value="&lt;div&gt;Callback&lt;/div&gt;&lt;div&gt;Amount &lt;br&gt;&lt;/div&gt;" style="edgeLabel;html=1;align=center;verticalAlign=middle;resizable=0;points=[];" parent="aZnRzv1SFX0IplNiYT6L-39" vertex="1" connectable="0">
          <mxGeometry x="-0.053" relative="1" as="geometry">
            <mxPoint x="-24" y="20" as="offset" />
          </mxGeometry>
        </mxCell>
        <mxCell id="aZnRzv1SFX0IplNiYT6L-42" value="" style="edgeStyle=elbowEdgeStyle;rounded=0;orthogonalLoop=1;jettySize=auto;html=1;elbow=vertical;curved=0;" parent="1" edge="1">
          <mxGeometry relative="1" as="geometry">
            <mxPoint x="280" y="320" as="sourcePoint" />
            <mxPoint x="139.5" y="320" as="targetPoint" />
          </mxGeometry>
        </mxCell>
        <mxCell id="aZnRzv1SFX0IplNiYT6L-43" value="addMoney" style="edgeLabel;html=1;align=center;verticalAlign=middle;resizable=0;points=[];" parent="aZnRzv1SFX0IplNiYT6L-42" vertex="1" connectable="0">
          <mxGeometry x="-0.2177" y="-2" relative="1" as="geometry">
            <mxPoint x="-12" y="17" as="offset" />
          </mxGeometry>
        </mxCell>
        <mxCell id="aZnRzv1SFX0IplNiYT6L-47" value="" style="edgeStyle=elbowEdgeStyle;rounded=0;orthogonalLoop=1;jettySize=auto;html=1;elbow=vertical;curved=0;dashed=1;" parent="1" edge="1">
          <mxGeometry relative="1" as="geometry">
            <mxPoint x="440" y="170" as="sourcePoint" />
            <mxPoint x="279.5" y="170" as="targetPoint" />
          </mxGeometry>
        </mxCell>
        <mxCell id="aZnRzv1SFX0IplNiYT6L-48" value="Bank Number" style="edgeLabel;html=1;align=center;verticalAlign=middle;resizable=0;points=[];" parent="aZnRzv1SFX0IplNiYT6L-47" vertex="1" connectable="0">
          <mxGeometry x="-0.2897" y="2" relative="1" as="geometry">
            <mxPoint x="-33" y="8" as="offset" />
          </mxGeometry>
        </mxCell>
        <mxCell id="aZnRzv1SFX0IplNiYT6L-52" value="" style="edgeStyle=elbowEdgeStyle;rounded=0;orthogonalLoop=1;jettySize=auto;html=1;elbow=vertical;curved=0;dashed=1;" parent="1" edge="1">
          <mxGeometry relative="1" as="geometry">
            <mxPoint x="613.75" y="170" as="sourcePoint" />
            <mxPoint x="615" y="170" as="targetPoint" />
          </mxGeometry>
        </mxCell>
        <mxCell id="aZnRzv1SFX0IplNiYT6L-53" value="OUT" style="shape=umlFrame;whiteSpace=wrap;html=1;pointerEvents=0;" parent="1" vertex="1">
          <mxGeometry x="60" y="470" width="670" height="190" as="geometry" />
        </mxCell>
        <mxCell id="aZnRzv1SFX0IplNiYT6L-54" value="&amp;nbsp;Input Bank Account Receive " style="html=1;verticalAlign=bottom;startArrow=oval;endArrow=block;startSize=8;edgeStyle=elbowEdgeStyle;elbow=vertical;curved=0;rounded=0;" parent="1" edge="1">
          <mxGeometry x="0.048" y="10" relative="1" as="geometry">
            <mxPoint x="139.5" y="500" as="sourcePoint" />
            <mxPoint x="275" y="500" as="targetPoint" />
            <mxPoint as="offset" />
          </mxGeometry>
        </mxCell>
        <mxCell id="aZnRzv1SFX0IplNiYT6L-57" value="Create Withdraw Request " style="edgeStyle=elbowEdgeStyle;rounded=0;orthogonalLoop=1;jettySize=auto;html=1;elbow=vertical;curved=0;" parent="1" source="aZnRzv1SFX0IplNiYT6L-55" target="aZnRzv1SFX0IplNiYT6L-56" edge="1">
          <mxGeometry x="-0.0323" y="20" relative="1" as="geometry">
            <Array as="points">
              <mxPoint x="350" y="510" />
            </Array>
            <mxPoint as="offset" />
          </mxGeometry>
        </mxCell>
        <mxCell id="aZnRzv1SFX0IplNiYT6L-62" value="" style="html=1;points=[];perimeter=orthogonalPerimeter;outlineConnect=0;targetShapes=umlLifeline;portConstraint=eastwest;newEdgeStyle={&quot;edgeStyle&quot;:&quot;elbowEdgeStyle&quot;,&quot;elbow&quot;:&quot;vertical&quot;,&quot;curved&quot;:0,&quot;rounded&quot;:0};" parent="1" vertex="1">
          <mxGeometry x="615" y="220" width="10" height="20" as="geometry" />
        </mxCell>
        <mxCell id="aZnRzv1SFX0IplNiYT6L-68" style="edgeStyle=elbowEdgeStyle;rounded=0;orthogonalLoop=1;jettySize=auto;html=1;elbow=horizontal;curved=0;" parent="1" edge="1">
          <mxGeometry relative="1" as="geometry">
            <mxPoint x="445.5" y="540" as="sourcePoint" />
            <mxPoint x="615" y="540" as="targetPoint" />
          </mxGeometry>
        </mxCell>
        <mxCell id="aZnRzv1SFX0IplNiYT6L-81" value="Tranfer VND to Bank Account " style="edgeLabel;html=1;align=center;verticalAlign=middle;resizable=0;points=[];" parent="aZnRzv1SFX0IplNiYT6L-68" vertex="1" connectable="0">
          <mxGeometry x="-0.1445" y="3" relative="1" as="geometry">
            <mxPoint x="22" y="-17" as="offset" />
          </mxGeometry>
        </mxCell>
        <mxCell id="aZnRzv1SFX0IplNiYT6L-71" style="edgeStyle=elbowEdgeStyle;rounded=0;orthogonalLoop=1;jettySize=auto;html=1;elbow=vertical;curved=0;" parent="1" edge="1">
          <mxGeometry relative="1" as="geometry">
            <mxPoint x="615" y="570" as="sourcePoint" />
            <mxPoint x="139.5" y="570" as="targetPoint" />
            <Array as="points">
              <mxPoint x="480" y="570" />
            </Array>
          </mxGeometry>
        </mxCell>
        <mxCell id="aZnRzv1SFX0IplNiYT6L-72" value="User Receve VND in bank" style="edgeLabel;html=1;align=center;verticalAlign=middle;resizable=0;points=[];" parent="aZnRzv1SFX0IplNiYT6L-71" vertex="1" connectable="0">
          <mxGeometry x="0.0263" y="1" relative="1" as="geometry">
            <mxPoint as="offset" />
          </mxGeometry>
        </mxCell>
        <mxCell id="aZnRzv1SFX0IplNiYT6L-79" value="IN" style="shape=umlFrame;whiteSpace=wrap;html=1;pointerEvents=0;" parent="1" vertex="1">
          <mxGeometry x="60" y="130" width="670" height="310" as="geometry" />
        </mxCell>
        <mxCell id="aZnRzv1SFX0IplNiYT6L-83" style="edgeStyle=elbowEdgeStyle;rounded=0;orthogonalLoop=1;jettySize=auto;html=1;elbow=vertical;curved=0;dashed=1;" parent="1" source="aZnRzv1SFX0IplNiYT6L-56" target="aZnRzv1SFX0IplNiYT6L-55" edge="1">
          <mxGeometry relative="1" as="geometry">
            <Array as="points">
              <mxPoint x="360" y="530" />
            </Array>
          </mxGeometry>
        </mxCell>
        <mxCell id="aZnRzv1SFX0IplNiYT6L-84" value="status" style="edgeLabel;html=1;align=center;verticalAlign=middle;resizable=0;points=[];" parent="aZnRzv1SFX0IplNiYT6L-83" vertex="1" connectable="0">
          <mxGeometry x="-0.1613" y="3" relative="1" as="geometry">
            <mxPoint as="offset" />
          </mxGeometry>
        </mxCell>
        <mxCell id="0KQNb2Ea7btGUVer9ctJ-23" style="edgeStyle=elbowEdgeStyle;rounded=0;orthogonalLoop=1;jettySize=auto;html=1;elbow=vertical;curved=0;" parent="1" source="0KQNb2Ea7btGUVer9ctJ-17" target="aM9ryv3xv72pqoxQDRHE-1" edge="1">
          <mxGeometry relative="1" as="geometry">
            <Array as="points">
              <mxPoint x="390" y="630" />
            </Array>
          </mxGeometry>
        </mxCell>
        <mxCell id="0KQNb2Ea7btGUVer9ctJ-24" value="Callback " style="edgeLabel;html=1;align=center;verticalAlign=middle;resizable=0;points=[];" parent="0KQNb2Ea7btGUVer9ctJ-23" vertex="1" connectable="0">
          <mxGeometry x="-0.2025" y="3" relative="1" as="geometry">
            <mxPoint y="7" as="offset" />
          </mxGeometry>
        </mxCell>
        <mxCell id="0KQNb2Ea7btGUVer9ctJ-17" value="" style="html=1;points=[];perimeter=orthogonalPerimeter;outlineConnect=0;targetShapes=umlLifeline;portConstraint=eastwest;newEdgeStyle={&quot;edgeStyle&quot;:&quot;elbowEdgeStyle&quot;,&quot;elbow&quot;:&quot;vertical&quot;,&quot;curved&quot;:0,&quot;rounded&quot;:0};" parent="1" vertex="1">
          <mxGeometry x="440" y="600" width="10" height="40" as="geometry" />
        </mxCell>
        <mxCell id="0KQNb2Ea7btGUVer9ctJ-18" value="" style="html=1;points=[];perimeter=orthogonalPerimeter;outlineConnect=0;targetShapes=umlLifeline;portConstraint=eastwest;newEdgeStyle={&quot;edgeStyle&quot;:&quot;elbowEdgeStyle&quot;,&quot;elbow&quot;:&quot;vertical&quot;,&quot;curved&quot;:0,&quot;rounded&quot;:0};" parent="1" vertex="1">
          <mxGeometry x="615" y="600" width="10" height="30" as="geometry" />
        </mxCell>
        <mxCell id="0KQNb2Ea7btGUVer9ctJ-19" style="edgeStyle=elbowEdgeStyle;rounded=0;orthogonalLoop=1;jettySize=auto;html=1;elbow=horizontal;curved=0;" parent="1" source="0KQNb2Ea7btGUVer9ctJ-17" edge="1">
          <mxGeometry relative="1" as="geometry">
            <Array as="points">
              <mxPoint x="520" y="600" />
            </Array>
            <mxPoint x="620" y="600" as="targetPoint" />
          </mxGeometry>
        </mxCell>
        <mxCell id="0KQNb2Ea7btGUVer9ctJ-20" value="get Transactions " style="edgeLabel;html=1;align=center;verticalAlign=middle;resizable=0;points=[];" parent="0KQNb2Ea7btGUVer9ctJ-19" vertex="1" connectable="0">
          <mxGeometry x="0.0973" y="-1" relative="1" as="geometry">
            <mxPoint x="-3" y="9" as="offset" />
          </mxGeometry>
        </mxCell>
        <mxCell id="0KQNb2Ea7btGUVer9ctJ-21" style="edgeStyle=elbowEdgeStyle;rounded=0;orthogonalLoop=1;jettySize=auto;html=1;elbow=vertical;curved=0;dashed=1;" parent="1" target="0KQNb2Ea7btGUVer9ctJ-17" edge="1">
          <mxGeometry relative="1" as="geometry">
            <mxPoint x="615" y="630" as="sourcePoint" />
            <Array as="points">
              <mxPoint x="540" y="630" />
            </Array>
          </mxGeometry>
        </mxCell>
        <mxCell id="0KQNb2Ea7btGUVer9ctJ-22" value="sync Transaction" style="edgeLabel;html=1;align=center;verticalAlign=middle;resizable=0;points=[];" parent="0KQNb2Ea7btGUVer9ctJ-21" vertex="1" connectable="0">
          <mxGeometry x="0.297" y="2" relative="1" as="geometry">
            <mxPoint x="22" y="13" as="offset" />
          </mxGeometry>
        </mxCell>
        <mxCell id="0KQNb2Ea7btGUVer9ctJ-26" style="edgeStyle=elbowEdgeStyle;rounded=0;orthogonalLoop=1;jettySize=auto;html=1;elbow=vertical;curved=0;" parent="1" source="0KQNb2Ea7btGUVer9ctJ-25" target="aZnRzv1SFX0IplNiYT6L-9" edge="1">
          <mxGeometry relative="1" as="geometry" />
        </mxCell>
        <mxCell id="0KQNb2Ea7btGUVer9ctJ-27" value="Notify for User" style="edgeLabel;html=1;align=center;verticalAlign=middle;resizable=0;points=[];" parent="0KQNb2Ea7btGUVer9ctJ-26" vertex="1" connectable="0">
          <mxGeometry x="0.1808" y="1" relative="1" as="geometry">
            <mxPoint x="5" y="-11" as="offset" />
          </mxGeometry>
        </mxCell>
        <mxCell id="0KQNb2Ea7btGUVer9ctJ-25" value="" style="html=1;points=[];perimeter=orthogonalPerimeter;outlineConnect=0;targetShapes=umlLifeline;portConstraint=eastwest;newEdgeStyle={&quot;edgeStyle&quot;:&quot;elbowEdgeStyle&quot;,&quot;elbow&quot;:&quot;vertical&quot;,&quot;curved&quot;:0,&quot;rounded&quot;:0};" parent="1" vertex="1">
          <mxGeometry x="275" y="630" width="10" height="20" as="geometry" />
        </mxCell>
      </root>
    </mxGraphModel>
  </diagram>
</mxfile>
